# xmcd
#
# Track frame offsets: 
#        150
#        13358
#        28972
#        39237
#        54114
#        65836
#        84460
#        96976
#        110683
#        123549
#        139428
#        152720
#
# Disc length: 2227 seconds
#
# Revision: 0
# Processed by: cddbd v1.5.2PL0 Copyright (c) Steve Scherf et al.
# Submitted via: ExactAudioCopy v0.90b4
#
DISCID=ab08b10c
DTITLE=Remington Ryde - The Ryde
DYEAR=2009
DGENRE=Bluegrass
TTITLE0=Four Letter Word
TTITLE1=Come Home
TTITLE2=Puddle Of Tears
TTITLE3=Dog Gone Daddy
TTITLE4=Springtime On The Brandywine
TTITLE5=I'll Wait For You
TTITLE6=Where You Gonna Hide
TTITLE7=Can't Seem To Stay Ahead
TTITLE8=Dizzy
TTITLE9=You'll Miss Me
TTITLE10=You Can't Break My Heart
TTITLE11=A Robin Built A Nest On Daddy's Grave
EXTD=
EXTT0=
EXTT1=
EXTT2=
EXTT3=
EXTT4=
EXTT5=
EXTT6=
EXTT7=
EXTT8=
EXTT9=
EXTT10=
EXTT11=
PLAYORDER=
